<?xml version="1.0" encoding="utf-8"?>
<!-- Generator: Adobe Illustrator 15.1.0, SVG Export Plug-In . SVG Version: 6.00 Build 0)  -->
<!DOCTYPE svg PUBLIC "-//W3C//DTD SVG 1.1//EN" "http://www.w3.org/Graphics/SVG/1.1/DTD/svg11.dtd">
<svg version="1.1" id="Layer_1" xmlns="http://www.w3.org/2000/svg" xmlns:xlink="http://www.w3.org/1999/xlink" x="0px" y="0px"
	 width="706px" height="567px" viewBox="0 0 706 567" enable-background="new 0 0 706 567" xml:space="preserve">
<circle fill="#6FA041" stroke="#FFFFFF" stroke-width="3" stroke-miterlimit="10" cx="588.604" cy="450.301" r="108.937"/>
<g>
	<path fill="#FFFFFF" d="M436.545,59.793c-1.62,0-2.91,1.41-2.91,3.42v13.62c0,2.04,1.29,3.419,2.91,3.419s2.79-1.38,2.79-3.419
		v-3.84h-1.561v4.2c0,0.69-0.42,1.23-1.14,1.23c-0.75,0-1.17-0.54-1.17-1.23V62.854c0-0.66,0.42-1.23,1.17-1.23
		c0.72,0,1.14,0.57,1.14,1.23v4.17h1.561v-3.81C439.335,61.204,438.165,59.793,436.545,59.793z"/>
	<path fill="#FFFFFF" d="M447.18,78.273v-5.43c0-1.17-0.359-2.07-1.29-2.49c0.931-0.42,1.23-1.32,1.23-2.52v-4.649
		c0-2.55-1.471-3.15-2.641-3.15h-3.029v19.979h1.83v-8.85h1.08c0.63,0,1.05,0.51,1.05,1.32v5.82c0,1.47,0.449,1.86,1.5,1.86h0.659
		v-1.11C447.24,79.053,447.18,78.813,447.18,78.273z M445.32,68.103c0,0.81-0.42,1.32-1.021,1.32h-1.02v-7.56h1.17
		c0.51,0,0.87,0.33,0.87,1.14V68.103z"/>
	<polygon fill="#FFFFFF" points="449.541,80.013 454.4,80.013 454.4,78.303 451.341,78.303 451.341,70.593 453.561,70.593 
		453.561,68.883 451.341,68.883 451.341,61.744 454.4,61.744 454.4,60.034 449.541,60.034 	"/>
	<path fill="#FFFFFF" d="M458.402,60.034l-2.25,19.979h1.65l0.42-4.05h1.98l0.3,4.05h1.89l-2.1-19.979H458.402z M458.402,74.193
		l0.931-9.27l0.72,9.27H458.402z"/>
	<polygon fill="#FFFFFF" points="463.086,61.803 465.036,61.803 465.036,80.013 466.836,80.013 466.836,61.803 468.636,61.803 
		468.636,60.034 463.086,60.034 	"/>
	<rect x="470.591" y="60.034" fill="#FFFFFF" width="1.83" height="19.979"/>
	<path fill="#FFFFFF" d="M477.529,59.793c-1.619,0-2.97,1.41-2.97,3.42v13.62c0,2.04,1.351,3.419,2.97,3.419
		c1.62,0,2.971-1.38,2.971-3.419v-13.62C480.5,61.204,479.149,59.793,477.529,59.793z M478.699,77.193c0,0.69-0.449,1.23-1.17,1.23
		c-0.75,0-1.17-0.54-1.17-1.23V62.854c0-0.66,0.42-1.23,1.17-1.23c0.721,0,1.17,0.57,1.17,1.23V77.193z"/>
	<polygon fill="#FFFFFF" points="487.23,73.563 486.69,70.473 484.411,60.034 482.641,60.034 482.641,80.013 484.351,80.013 
		484.351,66.663 484.951,69.693 487.591,80.013 488.94,80.013 488.94,60.034 487.23,60.034 	"/>
	<rect x="227.729" y="60.033" fill="#FFFFFF" width="1.83" height="19.979"/>
	<polygon fill="#FFFFFF" points="236.793,73.562 236.252,70.473 233.973,60.033 232.203,60.033 232.203,80.012 233.912,80.012 
		233.912,66.663 234.514,69.693 237.152,80.012 238.502,80.012 238.502,60.033 236.793,60.033 	"/>
	<polygon fill="#FFFFFF" points="245.727,73.562 245.188,70.473 242.908,60.033 241.137,60.033 241.137,80.012 242.848,80.012 
		242.848,66.663 243.447,69.693 246.088,80.012 247.438,80.012 247.438,60.033 245.727,60.033 	"/>
	<path fill="#FFFFFF" d="M252.688,59.793c-1.619,0-2.971,1.41-2.971,3.42v13.62c0,2.04,1.352,3.42,2.971,3.42s2.971-1.38,2.971-3.42
		v-13.62C255.658,61.203,254.307,59.793,252.688,59.793z M253.857,77.192c0,0.69-0.449,1.23-1.17,1.23c-0.75,0-1.17-0.54-1.17-1.23
		V62.853c0-0.66,0.42-1.23,1.17-1.23c0.721,0,1.17,0.57,1.17,1.23V77.192z"/>
	<polygon fill="#FFFFFF" points="260.898,75.212 259.758,60.033 257.867,60.033 259.938,80.012 261.857,80.012 264.078,60.033 
		262.367,60.033 	"/>
	<path fill="#FFFFFF" d="M267.018,60.033l-2.25,19.979h1.65l0.42-4.05h1.98l0.299,4.05h1.891l-2.1-19.979H267.018z M267.018,74.192
		l0.93-9.27l0.721,9.27H267.018z"/>
	<polygon fill="#FFFFFF" points="271.848,61.803 273.799,61.803 273.799,80.012 275.598,80.012 275.598,61.803 277.398,61.803 
		277.398,60.033 271.848,60.033 	"/>
	<rect x="279.498" y="60.033" fill="#FFFFFF" width="1.83" height="19.979"/>
	<path fill="#FFFFFF" d="M286.885,59.793c-1.619,0-2.969,1.41-2.969,3.42v13.62c0,2.04,1.35,3.42,2.969,3.42
		c1.621,0,2.971-1.38,2.971-3.42v-13.62C289.855,61.203,288.506,59.793,286.885,59.793z M288.055,77.192
		c0,0.69-0.449,1.23-1.17,1.23c-0.75,0-1.17-0.54-1.17-1.23V62.853c0-0.66,0.42-1.23,1.17-1.23c0.721,0,1.17,0.57,1.17,1.23V77.192z
		"/>
	<polygon fill="#FFFFFF" points="297.037,73.562 296.498,70.473 294.219,60.033 292.447,60.033 292.447,80.012 294.158,80.012 
		294.158,66.663 294.758,69.693 297.398,80.012 298.748,80.012 298.748,60.033 297.037,60.033 	"/>
	<path fill="#FFFFFF" d="M35.881,59.793c-1.62,0-2.91,1.41-2.91,3.42v13.62c0,2.04,1.29,3.419,2.91,3.419s2.79-1.38,2.79-3.419
		v-3.84H37.11v4.2c0,0.69-0.42,1.23-1.14,1.23c-0.75,0-1.17-0.54-1.17-1.23V62.854c0-0.66,0.42-1.23,1.17-1.23
		c0.72,0,1.14,0.57,1.14,1.23v4.17h1.561v-3.81C38.671,61.204,37.501,59.793,35.881,59.793z"/>
	<path fill="#FFFFFF" d="M43.833,59.793c-1.619,0-2.97,1.41-2.97,3.42v13.62c0,2.04,1.351,3.419,2.97,3.419
		c1.62,0,2.971-1.38,2.971-3.419v-13.62C46.804,61.204,45.453,59.793,43.833,59.793z M45.003,77.193c0,0.69-0.449,1.23-1.17,1.23
		c-0.75,0-1.17-0.54-1.17-1.23V62.854c0-0.66,0.42-1.23,1.17-1.23c0.721,0,1.17,0.57,1.17,1.23V77.193z"/>
	<polygon fill="#FFFFFF" points="53.746,72.333 53.416,75.633 53.086,72.333 51.766,60.034 49.126,60.034 49.126,80.013 
		50.716,80.013 50.716,65.104 51.046,68.433 52.516,80.013 54.136,80.013 55.546,68.433 55.846,65.104 55.846,80.013 57.586,80.013 
		57.586,60.034 55.035,60.034 	"/>
	<polygon fill="#FFFFFF" points="64.611,72.333 64.281,75.633 63.951,72.333 62.631,60.034 59.991,60.034 59.991,80.013 
		61.581,80.013 61.581,65.104 61.911,68.433 63.381,80.013 65.001,80.013 66.411,68.433 66.711,65.104 66.711,80.013 68.451,80.013 
		68.451,60.034 65.9,60.034 	"/>
	<path fill="#FFFFFF" d="M74.541,77.013c0,0.93-0.39,1.41-1.14,1.41c-0.721,0-1.11-0.48-1.11-1.41V60.034h-1.8v16.799
		c0,2.04,1.229,3.419,2.88,3.419c1.62,0,2.88-1.38,2.88-3.419V60.034h-1.71V77.013z"/>
	<polygon fill="#FFFFFF" points="83.145,73.563 82.604,70.473 80.325,60.034 78.555,60.034 78.555,80.013 80.265,80.013 
		80.265,66.663 80.865,69.693 83.505,80.013 84.854,80.013 84.854,60.034 83.145,60.034 	"/>
	<rect x="86.925" y="60.034" fill="#FFFFFF" width="1.83" height="19.979"/>
	<polygon fill="#FFFFFF" points="90.854,61.803 92.805,61.803 92.805,80.013 94.604,80.013 94.604,61.803 96.404,61.803 
		96.404,60.034 90.854,60.034 	"/>
	<polygon fill="#FFFFFF" points="101.354,69.393 99.823,60.034 98.113,60.034 100.334,72.183 100.334,80.013 102.134,80.013 
		102.134,72.183 104.623,60.034 102.913,60.034 	"/>
	<path fill="#FFFFFF" d="M590.104,339.883V108.166c0-21.481-17.476-38.957-38.957-38.957H523.49
		C523.051,35.274,495.324,7.8,461.288,7.8s-61.763,27.475-62.202,61.409H325.44C325.001,35.274,297.275,7.8,263.238,7.8
		s-61.763,27.475-62.202,61.409h-70.037C130.56,35.274,102.834,7.8,68.797,7.8c-34.31,0-62.223,27.913-62.223,62.223
		c0,34.31,27.913,62.223,62.223,62.223c33.576,0,61.01-26.737,62.167-60.037h70.107c1.157,33.299,28.591,60.037,62.167,60.037
		s61.01-26.737,62.167-60.037h73.716c1.158,33.299,28.591,60.037,62.167,60.037s61.009-26.737,62.167-60.037h27.692
		c19.827,0,35.957,16.13,35.957,35.957v231.717c-60.205,0.807-108.937,50.025-108.937,110.418
		c0,60.895,49.542,110.437,110.437,110.437s110.437-49.542,110.437-110.437C699.041,389.908,650.31,340.689,590.104,339.883z
		 M68.797,129.246c-32.655,0-59.223-26.567-59.223-59.223c0-32.656,26.567-59.223,59.223-59.223s59.223,26.567,59.223,59.223
		C128.02,102.678,101.452,129.246,68.797,129.246z M263.238,129.246c-32.655,0-59.223-26.567-59.223-59.223
		c0-32.656,26.567-59.223,59.223-59.223s59.223,26.567,59.223,59.223C322.461,102.678,295.894,129.246,263.238,129.246z
		 M461.288,129.246c-32.655,0-59.223-26.567-59.223-59.223c0-32.656,26.567-59.223,59.223-59.223s59.223,26.567,59.223,59.223
		C520.511,102.678,493.943,129.246,461.288,129.246z M588.604,557.737c-59.24,0-107.437-48.196-107.437-107.437
		s48.196-107.437,107.437-107.437s107.437,48.196,107.437,107.437S647.845,557.737,588.604,557.737z"/>
</g>
<g>
	<path fill="#FFFFFF" d="M521.632,438.1h-1.791v-1.206h1.975l0.365-2.779h-1.792v-1.207h1.975l0.549-3.857h1.225l-0.548,3.857h2.304
		l0.548-3.857h1.226l-0.549,3.857h1.792v1.207h-1.957l-0.384,2.779h1.792v1.206h-1.975l-0.549,3.895h-1.225l0.549-3.895h-2.304
		l-0.549,3.895h-1.225L521.632,438.1z M525.728,434.114h-2.304l-0.384,2.779h2.304L525.728,434.114z"/>
	<path fill="#FFFFFF" d="M537.104,435.577c-0.305-0.366-0.634-0.631-0.987-0.796c-0.354-0.164-0.744-0.246-1.17-0.246
		c-0.476,0-0.896,0.082-1.262,0.246c-0.366,0.165-0.668,0.394-0.905,0.686c-0.237,0.293-0.418,0.631-0.539,1.015
		c-0.122,0.385-0.183,0.796-0.183,1.234s0.069,0.851,0.21,1.234c0.14,0.384,0.335,0.722,0.585,1.015
		c0.25,0.292,0.552,0.521,0.905,0.686c0.354,0.164,0.749,0.247,1.188,0.247c0.938,0,1.663-0.354,2.175-1.061l1.061,1.006
		c-0.414,0.475-0.901,0.822-1.462,1.042c-0.562,0.219-1.152,0.329-1.773,0.329c-0.658,0-1.262-0.11-1.811-0.329
		c-0.549-0.22-1.015-0.53-1.398-0.933s-0.683-0.878-0.896-1.426c-0.214-0.549-0.32-1.152-0.32-1.811c0-0.646,0.106-1.243,0.32-1.792
		c0.213-0.548,0.515-1.023,0.904-1.426c0.391-0.402,0.856-0.716,1.398-0.941c0.543-0.226,1.144-0.338,1.802-0.338
		c0.633,0,1.233,0.109,1.801,0.329c0.566,0.219,1.062,0.561,1.49,1.023L537.104,435.577z"/>
	<path fill="#FFFFFF" d="M539.5,437.716c0-0.67,0.115-1.279,0.348-1.828c0.231-0.549,0.548-1.021,0.95-1.417
		c0.402-0.396,0.884-0.704,1.444-0.923c0.561-0.22,1.17-0.329,1.828-0.329s1.268,0.109,1.829,0.329
		c0.56,0.219,1.042,0.527,1.444,0.923c0.401,0.396,0.719,0.868,0.95,1.417s0.348,1.158,0.348,1.828c0,0.671-0.116,1.28-0.348,1.828
		c-0.231,0.549-0.549,1.021-0.95,1.417c-0.402,0.396-0.885,0.704-1.444,0.924c-0.562,0.219-1.171,0.329-1.829,0.329
		s-1.268-0.11-1.828-0.329c-0.561-0.22-1.042-0.527-1.444-0.924c-0.402-0.396-0.719-0.868-0.95-1.417
		C539.615,438.996,539.5,438.387,539.5,437.716z M541.036,437.716c0,0.451,0.069,0.868,0.21,1.253
		c0.14,0.384,0.344,0.719,0.612,1.005c0.268,0.287,0.588,0.512,0.96,0.677c0.371,0.164,0.789,0.247,1.252,0.247
		c0.464,0,0.881-0.083,1.253-0.247c0.371-0.165,0.691-0.39,0.96-0.677c0.268-0.286,0.472-0.621,0.612-1.005
		c0.14-0.385,0.21-0.802,0.21-1.253c0-0.45-0.07-0.868-0.21-1.252c-0.141-0.384-0.345-0.72-0.612-1.006
		c-0.269-0.286-0.589-0.512-0.96-0.677c-0.372-0.164-0.789-0.246-1.253-0.246c-0.463,0-0.881,0.082-1.252,0.246
		c-0.372,0.165-0.692,0.391-0.96,0.677c-0.269,0.286-0.473,0.622-0.612,1.006C541.105,436.848,541.036,437.266,541.036,437.716z"/>
	<path fill="#FFFFFF" d="M550.686,437.716c0-0.67,0.115-1.279,0.348-1.828c0.231-0.549,0.548-1.021,0.95-1.417
		c0.402-0.396,0.884-0.704,1.444-0.923c0.561-0.22,1.17-0.329,1.828-0.329s1.268,0.109,1.829,0.329
		c0.56,0.219,1.042,0.527,1.444,0.923c0.401,0.396,0.719,0.868,0.95,1.417s0.348,1.158,0.348,1.828c0,0.671-0.116,1.28-0.348,1.828
		c-0.231,0.549-0.549,1.021-0.95,1.417c-0.402,0.396-0.885,0.704-1.444,0.924c-0.562,0.219-1.171,0.329-1.829,0.329
		s-1.268-0.11-1.828-0.329c-0.561-0.22-1.042-0.527-1.444-0.924c-0.402-0.396-0.719-0.868-0.95-1.417
		C550.801,438.996,550.686,438.387,550.686,437.716z M552.222,437.716c0,0.451,0.069,0.868,0.21,1.253
		c0.14,0.384,0.344,0.719,0.612,1.005c0.268,0.287,0.588,0.512,0.96,0.677c0.371,0.164,0.789,0.247,1.252,0.247
		c0.464,0,0.881-0.083,1.253-0.247c0.371-0.165,0.691-0.39,0.96-0.677c0.268-0.286,0.472-0.621,0.612-1.005
		c0.14-0.385,0.21-0.802,0.21-1.253c0-0.45-0.07-0.868-0.21-1.252c-0.141-0.384-0.345-0.72-0.612-1.006
		c-0.269-0.286-0.589-0.512-0.96-0.677c-0.372-0.164-0.789-0.246-1.253-0.246c-0.463,0-0.881,0.082-1.252,0.246
		c-0.372,0.165-0.692,0.391-0.96,0.677c-0.269,0.286-0.473,0.622-0.612,1.006C552.291,436.848,552.222,437.266,552.222,437.716z"/>
	<path fill="#FFFFFF" d="M562.421,428.172h1.427v13.822h-1.427V428.172z"/>
	<path fill="#FFFFFF" d="M566.924,428.172h1.427v6.454h0.036c0.098-0.171,0.231-0.338,0.402-0.503
		c0.171-0.164,0.375-0.313,0.612-0.447c0.238-0.135,0.503-0.244,0.796-0.329c0.292-0.086,0.603-0.128,0.932-0.128
		c0.561,0,1.045,0.085,1.454,0.256c0.408,0.171,0.746,0.408,1.015,0.713c0.268,0.305,0.466,0.674,0.594,1.105
		c0.128,0.434,0.192,0.905,0.192,1.417v5.284h-1.426v-5.138c0-0.719-0.159-1.285-0.476-1.7c-0.317-0.414-0.811-0.621-1.481-0.621
		c-0.463,0-0.862,0.079-1.197,0.237s-0.609,0.384-0.822,0.677c-0.214,0.292-0.372,0.64-0.476,1.042s-0.155,0.847-0.155,1.334v4.169
		h-1.427V428.172z"/>
	<path fill="#FFFFFF" d="M576.892,437.716c0-0.67,0.115-1.279,0.348-1.828c0.231-0.549,0.548-1.021,0.95-1.417
		c0.402-0.396,0.884-0.704,1.444-0.923c0.561-0.22,1.17-0.329,1.828-0.329s1.268,0.109,1.829,0.329
		c0.56,0.219,1.042,0.527,1.444,0.923c0.401,0.396,0.719,0.868,0.95,1.417s0.348,1.158,0.348,1.828c0,0.671-0.116,1.28-0.348,1.828
		c-0.231,0.549-0.549,1.021-0.95,1.417c-0.402,0.396-0.885,0.704-1.444,0.924c-0.562,0.219-1.171,0.329-1.829,0.329
		s-1.268-0.11-1.828-0.329c-0.561-0.22-1.042-0.527-1.444-0.924c-0.402-0.396-0.719-0.868-0.95-1.417
		C577.007,438.996,576.892,438.387,576.892,437.716z M578.428,437.716c0,0.451,0.069,0.868,0.21,1.253
		c0.14,0.384,0.344,0.719,0.612,1.005c0.268,0.287,0.588,0.512,0.96,0.677c0.371,0.164,0.789,0.247,1.252,0.247
		c0.464,0,0.881-0.083,1.253-0.247c0.371-0.165,0.691-0.39,0.96-0.677c0.268-0.286,0.472-0.621,0.612-1.005
		c0.14-0.385,0.21-0.802,0.21-1.253c0-0.45-0.07-0.868-0.21-1.252c-0.141-0.384-0.345-0.72-0.612-1.006
		c-0.269-0.286-0.589-0.512-0.96-0.677c-0.372-0.164-0.789-0.246-1.253-0.246c-0.463,0-0.881,0.082-1.252,0.246
		c-0.372,0.165-0.692,0.391-0.96,0.677c-0.269,0.286-0.473,0.622-0.612,1.006C578.497,436.848,578.428,437.266,578.428,437.716z"/>
	<path fill="#FFFFFF" d="M595.97,439.965c0,0.39,0.012,0.756,0.036,1.097c0.024,0.342,0.037,0.652,0.037,0.933h-1.354
		c0-0.231-0.006-0.463-0.018-0.694c-0.013-0.231-0.019-0.47-0.019-0.714h-0.037c-0.098,0.208-0.234,0.409-0.411,0.604
		c-0.177,0.195-0.387,0.369-0.631,0.521c-0.243,0.152-0.518,0.274-0.822,0.365c-0.305,0.092-0.634,0.138-0.987,0.138
		c-0.561,0-1.045-0.086-1.453-0.256c-0.409-0.171-0.747-0.408-1.016-0.714c-0.268-0.304-0.466-0.673-0.594-1.105
		s-0.192-0.905-0.192-1.417v-5.284h1.427v5.138c0,0.72,0.158,1.286,0.475,1.7c0.317,0.415,0.811,0.622,1.481,0.622
		c0.463,0,0.862-0.079,1.197-0.238c0.335-0.158,0.609-0.384,0.823-0.676c0.213-0.293,0.371-0.641,0.475-1.043
		c0.104-0.401,0.156-0.847,0.156-1.334v-4.169h1.426V439.965z"/>
	<path fill="#FFFFFF" d="M599.283,439.745c0.28,0.354,0.588,0.634,0.923,0.841c0.335,0.208,0.759,0.312,1.271,0.312
		c0.22,0,0.441-0.024,0.668-0.073c0.225-0.049,0.43-0.128,0.612-0.238c0.183-0.109,0.329-0.246,0.438-0.411
		c0.109-0.164,0.165-0.362,0.165-0.594s-0.053-0.421-0.156-0.567c-0.104-0.146-0.24-0.271-0.411-0.374s-0.365-0.187-0.585-0.247
		s-0.445-0.116-0.677-0.165c-0.401-0.085-0.786-0.183-1.151-0.292c-0.366-0.11-0.686-0.253-0.96-0.43s-0.493-0.405-0.658-0.686
		c-0.164-0.28-0.247-0.641-0.247-1.079c0-0.414,0.092-0.779,0.274-1.097s0.427-0.579,0.731-0.786s0.646-0.366,1.023-0.476
		s0.769-0.164,1.171-0.164c0.609,0,1.173,0.121,1.69,0.365c0.519,0.244,0.924,0.64,1.216,1.188l-1.188,0.786
		c-0.183-0.305-0.423-0.552-0.722-0.74c-0.299-0.189-0.661-0.283-1.088-0.283c-0.195,0-0.394,0.024-0.594,0.072
		c-0.201,0.049-0.382,0.122-0.54,0.22s-0.289,0.223-0.393,0.375s-0.155,0.326-0.155,0.521c0,0.184,0.058,0.339,0.173,0.467
		c0.116,0.128,0.274,0.24,0.476,0.338s0.433,0.183,0.695,0.256c0.262,0.073,0.533,0.135,0.813,0.184
		c0.377,0.072,0.737,0.167,1.078,0.283c0.342,0.115,0.641,0.271,0.896,0.466c0.256,0.195,0.457,0.438,0.604,0.731
		c0.146,0.293,0.219,0.652,0.219,1.079c0,0.487-0.098,0.901-0.292,1.243c-0.195,0.341-0.454,0.618-0.777,0.831
		c-0.323,0.214-0.688,0.369-1.097,0.467c-0.409,0.098-0.826,0.146-1.253,0.146c-0.731,0-1.362-0.113-1.892-0.339
		c-0.53-0.225-1.009-0.643-1.436-1.252L599.283,439.745z"/>
	<path fill="#FFFFFF" d="M614.911,440.44c-0.512,0.658-1.072,1.118-1.682,1.38c-0.61,0.262-1.316,0.394-2.121,0.394
		c-0.671,0-1.273-0.119-1.81-0.356c-0.537-0.238-0.991-0.558-1.362-0.96c-0.372-0.402-0.658-0.878-0.859-1.427
		c-0.201-0.548-0.302-1.133-0.302-1.755c0-0.658,0.109-1.265,0.329-1.819c0.22-0.554,0.523-1.029,0.914-1.426
		c0.39-0.396,0.853-0.704,1.39-0.923c0.536-0.22,1.121-0.329,1.755-0.329c0.598,0,1.146,0.101,1.646,0.301
		c0.5,0.201,0.93,0.494,1.289,0.878s0.637,0.854,0.832,1.408c0.194,0.555,0.292,1.186,0.292,1.892v0.457h-6.91
		c0.023,0.366,0.112,0.717,0.265,1.052s0.351,0.628,0.594,0.878c0.244,0.25,0.53,0.447,0.859,0.594s0.688,0.22,1.079,0.22
		c0.622,0,1.146-0.11,1.572-0.329c0.427-0.22,0.811-0.543,1.152-0.97L614.911,440.44z M613.687,436.948
		c-0.024-0.731-0.263-1.316-0.713-1.755c-0.451-0.439-1.073-0.658-1.865-0.658s-1.433,0.219-1.92,0.658
		c-0.487,0.438-0.78,1.023-0.877,1.755H613.687z"/>
	<path fill="#FFFFFF" d="M617.836,428.172h1.427v13.822h-1.427V428.172z"/>
	<path fill="#FFFFFF" d="M622.24,434.535c0.438-0.451,0.96-0.783,1.563-0.997c0.604-0.213,1.216-0.319,1.837-0.319
		c1.268,0,2.182,0.299,2.743,0.896c0.561,0.598,0.841,1.506,0.841,2.724v3.676c0,0.243,0.012,0.496,0.036,0.758
		c0.024,0.263,0.055,0.503,0.092,0.723h-1.371c-0.049-0.195-0.076-0.411-0.083-0.649c-0.006-0.237-0.009-0.447-0.009-0.631h-0.036
		c-0.281,0.439-0.655,0.799-1.125,1.079c-0.469,0.28-1.033,0.421-1.69,0.421c-0.439,0-0.851-0.056-1.234-0.165
		s-0.72-0.271-1.006-0.484c-0.286-0.213-0.515-0.479-0.686-0.795c-0.171-0.317-0.256-0.683-0.256-1.098
		c0-0.706,0.183-1.261,0.549-1.663c0.365-0.402,0.819-0.701,1.361-0.896c0.543-0.194,1.128-0.316,1.756-0.365
		c0.627-0.049,1.203-0.073,1.728-0.073h0.548v-0.256c0-0.622-0.186-1.091-0.558-1.408c-0.371-0.316-0.893-0.475-1.562-0.475
		c-0.464,0-0.918,0.076-1.362,0.229c-0.445,0.152-0.838,0.387-1.18,0.703L622.24,434.535z M626.372,437.881
		c-0.914,0-1.64,0.128-2.176,0.384s-0.804,0.676-0.804,1.262c0,0.536,0.18,0.917,0.539,1.143s0.808,0.338,1.344,0.338
		c0.414,0,0.777-0.07,1.088-0.21c0.311-0.141,0.569-0.326,0.777-0.558c0.207-0.231,0.365-0.503,0.475-0.813
		c0.11-0.312,0.171-0.644,0.183-0.997v-0.548H626.372z"/>
	<path fill="#FFFFFF" d="M632.138,428.172h1.426v6.509h0.036c0.391-0.463,0.844-0.822,1.362-1.078
		c0.518-0.256,1.088-0.384,1.71-0.384c0.67,0,1.282,0.112,1.837,0.338s1.026,0.539,1.417,0.941c0.39,0.402,0.694,0.878,0.914,1.426
		c0.22,0.549,0.329,1.146,0.329,1.792c0,0.646-0.109,1.243-0.329,1.792c-0.22,0.548-0.521,1.023-0.905,1.426
		c-0.384,0.402-0.838,0.717-1.361,0.941c-0.524,0.226-1.085,0.339-1.683,0.339c-0.768,0-1.441-0.168-2.021-0.503
		s-1.002-0.747-1.271-1.234h-0.036v1.518h-1.426V428.172z M633.563,437.716c0,0.451,0.069,0.868,0.21,1.253
		c0.14,0.384,0.345,0.719,0.612,1.005c0.269,0.287,0.588,0.512,0.96,0.677c0.372,0.164,0.789,0.247,1.253,0.247
		c0.463,0,0.88-0.083,1.252-0.247c0.372-0.165,0.691-0.39,0.96-0.677c0.268-0.286,0.473-0.621,0.612-1.005
		c0.14-0.385,0.21-0.802,0.21-1.253c0-0.45-0.07-0.868-0.21-1.252s-0.345-0.72-0.612-1.006c-0.269-0.286-0.588-0.512-0.96-0.677
		c-0.372-0.164-0.789-0.246-1.252-0.246c-0.464,0-0.881,0.082-1.253,0.246c-0.372,0.165-0.691,0.391-0.96,0.677
		c-0.268,0.286-0.473,0.622-0.612,1.006C633.633,436.848,633.563,437.266,633.563,437.716z"/>
	<path fill="#FFFFFF" d="M643.875,439.745c0.28,0.354,0.588,0.634,0.923,0.841c0.335,0.208,0.759,0.312,1.271,0.312
		c0.22,0,0.441-0.024,0.668-0.073c0.225-0.049,0.43-0.128,0.612-0.238c0.183-0.109,0.329-0.246,0.438-0.411
		c0.109-0.164,0.165-0.362,0.165-0.594s-0.053-0.421-0.156-0.567c-0.104-0.146-0.24-0.271-0.411-0.374s-0.365-0.187-0.585-0.247
		s-0.445-0.116-0.677-0.165c-0.401-0.085-0.786-0.183-1.151-0.292c-0.366-0.11-0.686-0.253-0.96-0.43s-0.493-0.405-0.658-0.686
		c-0.164-0.28-0.247-0.641-0.247-1.079c0-0.414,0.092-0.779,0.274-1.097s0.427-0.579,0.731-0.786s0.646-0.366,1.023-0.476
		s0.769-0.164,1.171-0.164c0.609,0,1.173,0.121,1.69,0.365c0.519,0.244,0.924,0.64,1.216,1.188l-1.188,0.786
		c-0.183-0.305-0.423-0.552-0.722-0.74c-0.299-0.189-0.661-0.283-1.088-0.283c-0.195,0-0.394,0.024-0.594,0.072
		c-0.201,0.049-0.382,0.122-0.54,0.22s-0.289,0.223-0.393,0.375s-0.155,0.326-0.155,0.521c0,0.184,0.058,0.339,0.173,0.467
		c0.116,0.128,0.274,0.24,0.476,0.338s0.433,0.183,0.695,0.256c0.262,0.073,0.533,0.135,0.813,0.184
		c0.377,0.072,0.737,0.167,1.078,0.283c0.342,0.115,0.641,0.271,0.896,0.466c0.256,0.195,0.457,0.438,0.604,0.731
		c0.146,0.293,0.219,0.652,0.219,1.079c0,0.487-0.098,0.901-0.292,1.243c-0.195,0.341-0.454,0.618-0.777,0.831
		c-0.323,0.214-0.688,0.369-1.097,0.467c-0.409,0.098-0.826,0.146-1.253,0.146c-0.731,0-1.362-0.113-1.892-0.339
		c-0.53-0.225-1.009-0.643-1.436-1.252L643.875,439.745z"/>
	<path fill="#FFFFFF" d="M521.632,463.769h-1.791v-1.206h1.975l0.365-2.779h-1.792v-1.207h1.975l0.549-3.857h1.225l-0.548,3.857
		h2.304l0.548-3.857h1.226l-0.549,3.857h1.792v1.207h-1.957l-0.384,2.779h1.792v1.206h-1.975l-0.549,3.895h-1.225l0.549-3.895
		h-2.304l-0.549,3.895h-1.225L521.632,463.769z M525.728,459.783h-2.304l-0.384,2.779h2.304L525.728,459.783z"/>
	<path fill="#FFFFFF" d="M531.264,465.414c0.28,0.354,0.588,0.634,0.923,0.841c0.335,0.208,0.759,0.312,1.271,0.312
		c0.22,0,0.441-0.024,0.668-0.073c0.225-0.049,0.43-0.128,0.612-0.238c0.183-0.109,0.329-0.246,0.438-0.411
		c0.109-0.164,0.165-0.362,0.165-0.594s-0.053-0.421-0.156-0.567c-0.104-0.146-0.24-0.271-0.411-0.374s-0.365-0.187-0.585-0.247
		s-0.445-0.116-0.677-0.165c-0.401-0.085-0.786-0.183-1.151-0.292c-0.366-0.11-0.686-0.253-0.96-0.43s-0.493-0.405-0.658-0.686
		c-0.164-0.28-0.247-0.641-0.247-1.079c0-0.414,0.092-0.779,0.274-1.097s0.427-0.579,0.731-0.786s0.646-0.366,1.023-0.476
		s0.769-0.164,1.171-0.164c0.609,0,1.173,0.121,1.69,0.365c0.519,0.244,0.924,0.64,1.216,1.188l-1.188,0.786
		c-0.183-0.305-0.423-0.552-0.722-0.74c-0.299-0.189-0.661-0.283-1.088-0.283c-0.195,0-0.394,0.024-0.594,0.072
		c-0.201,0.049-0.382,0.122-0.54,0.22s-0.289,0.223-0.393,0.375s-0.155,0.326-0.155,0.521c0,0.184,0.058,0.339,0.173,0.467
		c0.116,0.128,0.274,0.24,0.476,0.338s0.433,0.183,0.695,0.256c0.262,0.073,0.533,0.135,0.813,0.184
		c0.377,0.072,0.737,0.167,1.078,0.283c0.342,0.115,0.641,0.271,0.896,0.466c0.256,0.195,0.457,0.438,0.604,0.731
		c0.146,0.293,0.219,0.652,0.219,1.079c0,0.487-0.098,0.901-0.292,1.243c-0.195,0.341-0.454,0.618-0.777,0.831
		c-0.323,0.214-0.688,0.369-1.097,0.467c-0.409,0.098-0.826,0.146-1.253,0.146c-0.731,0-1.362-0.113-1.892-0.339
		c-0.53-0.225-1.009-0.643-1.436-1.252L531.264,465.414z"/>
	<path fill="#FFFFFF" d="M543.623,460.313h-2.522v4.278c0,0.28,0.006,0.539,0.018,0.776c0.013,0.238,0.062,0.445,0.146,0.622
		s0.213,0.317,0.384,0.421s0.414,0.155,0.731,0.155c0.207,0,0.421-0.024,0.64-0.073c0.22-0.049,0.427-0.122,0.622-0.22l0.055,1.298
		c-0.244,0.11-0.515,0.189-0.813,0.238s-0.582,0.073-0.851,0.073c-0.512,0-0.92-0.067-1.225-0.201s-0.542-0.323-0.713-0.567
		c-0.171-0.243-0.283-0.545-0.338-0.904c-0.056-0.359-0.083-0.759-0.083-1.198v-4.698h-1.864v-1.207h1.864v-2.432h1.427v2.432h2.522
		V460.313z"/>
	<path fill="#FFFFFF" d="M545.797,460.204c0.438-0.451,0.96-0.783,1.563-0.997c0.604-0.213,1.216-0.319,1.837-0.319
		c1.268,0,2.182,0.299,2.743,0.896c0.561,0.598,0.841,1.506,0.841,2.724v3.676c0,0.243,0.012,0.496,0.036,0.758
		c0.024,0.263,0.055,0.503,0.092,0.723h-1.371c-0.049-0.195-0.076-0.411-0.083-0.649c-0.006-0.237-0.009-0.447-0.009-0.631h-0.036
		c-0.281,0.439-0.655,0.799-1.125,1.079c-0.469,0.28-1.033,0.421-1.69,0.421c-0.439,0-0.851-0.056-1.234-0.165
		s-0.72-0.271-1.006-0.484c-0.286-0.213-0.515-0.479-0.686-0.795c-0.171-0.317-0.256-0.683-0.256-1.098
		c0-0.706,0.183-1.261,0.549-1.663c0.365-0.402,0.819-0.701,1.361-0.896c0.543-0.194,1.128-0.316,1.756-0.365
		c0.627-0.049,1.203-0.073,1.728-0.073h0.548v-0.256c0-0.622-0.186-1.091-0.558-1.408c-0.371-0.316-0.893-0.475-1.562-0.475
		c-0.464,0-0.918,0.076-1.362,0.229c-0.445,0.152-0.838,0.387-1.18,0.703L545.797,460.204z M549.929,463.55
		c-0.914,0-1.64,0.128-2.176,0.384s-0.804,0.676-0.804,1.262c0,0.536,0.18,0.917,0.539,1.143s0.808,0.338,1.344,0.338
		c0.414,0,0.777-0.07,1.088-0.21c0.311-0.141,0.569-0.326,0.777-0.558c0.207-0.231,0.365-0.503,0.475-0.813
		c0.11-0.312,0.171-0.644,0.183-0.997v-0.548H549.929z"/>
	<path fill="#FFFFFF" d="M555.175,461.136c0-0.39-0.012-0.755-0.036-1.097c-0.024-0.341-0.036-0.652-0.036-0.933h1.353
		c0,0.231,0.006,0.464,0.019,0.695c0.012,0.231,0.018,0.469,0.018,0.713h0.037c0.098-0.207,0.234-0.408,0.411-0.604
		s0.387-0.368,0.631-0.521c0.243-0.152,0.518-0.273,0.822-0.365s0.634-0.137,0.987-0.137c0.098,0,0.195,0.006,0.293,0.018
		c0.098,0.013,0.194,0.037,0.293,0.073l-0.092,1.444c-0.244-0.073-0.5-0.109-0.768-0.109c-0.878,0-1.515,0.283-1.911,0.85
		c-0.396,0.567-0.594,1.344-0.594,2.331v4.169h-1.427V461.136z"/>
	<path fill="#FFFFFF" d="M567.226,460.313h-2.522v4.278c0,0.28,0.006,0.539,0.018,0.776c0.013,0.238,0.062,0.445,0.146,0.622
		s0.213,0.317,0.384,0.421s0.414,0.155,0.731,0.155c0.207,0,0.421-0.024,0.64-0.073c0.22-0.049,0.427-0.122,0.622-0.22l0.055,1.298
		c-0.244,0.11-0.515,0.189-0.813,0.238s-0.582,0.073-0.851,0.073c-0.512,0-0.92-0.067-1.225-0.201s-0.542-0.323-0.713-0.567
		c-0.171-0.243-0.283-0.545-0.338-0.904c-0.056-0.359-0.083-0.759-0.083-1.198v-4.698h-1.864v-1.207h1.864v-2.432h1.427v2.432h2.522
		V460.313z"/>
	<path fill="#FFFFFF" d="M576.738,465.634c0,0.39,0.012,0.756,0.036,1.097c0.024,0.342,0.037,0.652,0.037,0.933h-1.354
		c0-0.231-0.006-0.463-0.018-0.694c-0.013-0.231-0.019-0.47-0.019-0.714h-0.037c-0.098,0.208-0.234,0.409-0.411,0.604
		c-0.177,0.195-0.387,0.369-0.631,0.521c-0.243,0.152-0.518,0.274-0.822,0.365c-0.305,0.092-0.634,0.138-0.987,0.138
		c-0.561,0-1.045-0.086-1.453-0.256c-0.409-0.171-0.747-0.408-1.016-0.714c-0.268-0.304-0.466-0.673-0.594-1.105
		s-0.192-0.905-0.192-1.417v-5.284h1.427v5.138c0,0.72,0.158,1.286,0.475,1.7c0.317,0.415,0.811,0.622,1.481,0.622
		c0.463,0,0.862-0.079,1.197-0.238c0.335-0.158,0.609-0.384,0.823-0.676c0.213-0.293,0.371-0.641,0.475-1.043
		c0.104-0.401,0.156-0.847,0.156-1.334v-4.169h1.426V465.634z"/>
	<path fill="#FFFFFF" d="M579.737,459.106h1.426v1.243h0.036c0.391-0.463,0.844-0.822,1.362-1.078
		c0.518-0.256,1.088-0.384,1.71-0.384c0.67,0,1.282,0.112,1.837,0.338s1.026,0.539,1.417,0.941c0.39,0.402,0.694,0.878,0.914,1.426
		c0.22,0.549,0.329,1.146,0.329,1.792c0,0.646-0.109,1.243-0.329,1.792c-0.22,0.548-0.521,1.023-0.905,1.426
		c-0.384,0.402-0.838,0.717-1.361,0.941c-0.524,0.226-1.085,0.339-1.683,0.339c-0.768,0-1.441-0.168-2.021-0.503
		s-1.002-0.747-1.271-1.234h-0.036v5.687h-1.426V459.106z M581.163,463.385c0,0.451,0.069,0.868,0.21,1.253
		c0.14,0.384,0.345,0.719,0.612,1.005c0.269,0.287,0.588,0.512,0.96,0.677c0.372,0.164,0.789,0.247,1.253,0.247
		c0.463,0,0.88-0.083,1.252-0.247c0.372-0.165,0.691-0.39,0.96-0.677c0.268-0.286,0.473-0.621,0.612-1.005
		c0.14-0.385,0.21-0.802,0.21-1.253c0-0.45-0.07-0.868-0.21-1.252s-0.345-0.72-0.612-1.006c-0.269-0.286-0.588-0.512-0.96-0.677
		c-0.372-0.164-0.789-0.246-1.252-0.246c-0.464,0-0.881,0.082-1.253,0.246c-0.372,0.165-0.691,0.391-0.96,0.677
		c-0.268,0.286-0.473,0.622-0.612,1.006C581.232,462.517,581.163,462.935,581.163,463.385z"/>
	<path fill="#FFFFFF" d="M591.475,465.414c0.28,0.354,0.588,0.634,0.923,0.841c0.335,0.208,0.759,0.312,1.271,0.312
		c0.22,0,0.441-0.024,0.668-0.073c0.225-0.049,0.43-0.128,0.612-0.238c0.183-0.109,0.329-0.246,0.438-0.411
		c0.109-0.164,0.165-0.362,0.165-0.594s-0.053-0.421-0.156-0.567c-0.104-0.146-0.24-0.271-0.411-0.374s-0.365-0.187-0.585-0.247
		s-0.445-0.116-0.677-0.165c-0.401-0.085-0.786-0.183-1.151-0.292c-0.366-0.11-0.686-0.253-0.96-0.43s-0.493-0.405-0.658-0.686
		c-0.164-0.28-0.247-0.641-0.247-1.079c0-0.414,0.092-0.779,0.274-1.097s0.427-0.579,0.731-0.786s0.646-0.366,1.023-0.476
		s0.769-0.164,1.171-0.164c0.609,0,1.173,0.121,1.69,0.365c0.519,0.244,0.924,0.64,1.216,1.188l-1.188,0.786
		c-0.183-0.305-0.423-0.552-0.722-0.74c-0.299-0.189-0.661-0.283-1.088-0.283c-0.195,0-0.394,0.024-0.594,0.072
		c-0.201,0.049-0.382,0.122-0.54,0.22s-0.289,0.223-0.393,0.375s-0.155,0.326-0.155,0.521c0,0.184,0.058,0.339,0.173,0.467
		c0.116,0.128,0.274,0.24,0.476,0.338s0.433,0.183,0.695,0.256c0.262,0.073,0.533,0.135,0.813,0.184
		c0.377,0.072,0.737,0.167,1.078,0.283c0.342,0.115,0.641,0.271,0.896,0.466c0.256,0.195,0.457,0.438,0.604,0.731
		c0.146,0.293,0.219,0.652,0.219,1.079c0,0.487-0.098,0.901-0.292,1.243c-0.195,0.341-0.454,0.618-0.777,0.831
		c-0.323,0.214-0.688,0.369-1.097,0.467c-0.409,0.098-0.826,0.146-1.253,0.146c-0.731,0-1.362-0.113-1.892-0.339
		c-0.53-0.225-1.009-0.643-1.436-1.252L591.475,465.414z"/>
	<path fill="#FFFFFF" d="M606.845,465.634c0,0.39,0.012,0.756,0.036,1.097c0.024,0.342,0.037,0.652,0.037,0.933h-1.354
		c0-0.231-0.006-0.463-0.018-0.694c-0.013-0.231-0.019-0.47-0.019-0.714h-0.037c-0.098,0.208-0.234,0.409-0.411,0.604
		c-0.177,0.195-0.387,0.369-0.631,0.521c-0.243,0.152-0.518,0.274-0.822,0.365c-0.305,0.092-0.634,0.138-0.987,0.138
		c-0.561,0-1.045-0.086-1.453-0.256c-0.409-0.171-0.747-0.408-1.016-0.714c-0.268-0.304-0.466-0.673-0.594-1.105
		s-0.192-0.905-0.192-1.417v-5.284h1.427v5.138c0,0.72,0.158,1.286,0.475,1.7c0.317,0.415,0.811,0.622,1.481,0.622
		c0.463,0,0.862-0.079,1.197-0.238c0.335-0.158,0.609-0.384,0.823-0.676c0.213-0.293,0.371-0.641,0.475-1.043
		c0.104-0.401,0.156-0.847,0.156-1.334v-4.169h1.426V465.634z"/>
	<path fill="#FFFFFF" d="M609.696,461.136c0-0.39-0.012-0.755-0.036-1.097c-0.024-0.341-0.036-0.652-0.036-0.933h1.353
		c0,0.231,0.006,0.464,0.019,0.695c0.012,0.231,0.018,0.469,0.018,0.713h0.037c0.098-0.207,0.234-0.408,0.411-0.604
		s0.387-0.368,0.631-0.521c0.243-0.152,0.518-0.273,0.822-0.365s0.634-0.137,0.987-0.137c0.464,0,0.851,0.058,1.161,0.173
		c0.312,0.116,0.57,0.257,0.777,0.421c0.207,0.165,0.368,0.342,0.484,0.53c0.116,0.189,0.21,0.356,0.283,0.503
		c0.317-0.512,0.683-0.911,1.098-1.197c0.414-0.287,0.95-0.43,1.608-0.43c0.609,0,1.121,0.082,1.536,0.246
		c0.414,0.165,0.749,0.402,1.005,0.713c0.256,0.312,0.439,0.689,0.549,1.134c0.109,0.445,0.165,0.941,0.165,1.49v5.192h-1.427
		v-5.119c0-0.293-0.03-0.579-0.091-0.859c-0.062-0.28-0.171-0.53-0.329-0.75c-0.159-0.219-0.372-0.396-0.641-0.53
		c-0.268-0.134-0.609-0.2-1.023-0.2c-0.305,0-0.592,0.061-0.859,0.183c-0.269,0.122-0.503,0.292-0.704,0.512
		s-0.359,0.484-0.476,0.795c-0.115,0.312-0.173,0.655-0.173,1.033v4.937h-1.427v-4.845c0-0.951-0.128-1.624-0.384-2.021
		c-0.256-0.396-0.677-0.594-1.262-0.594c-0.463,0-0.862,0.079-1.197,0.237s-0.609,0.384-0.822,0.677
		c-0.214,0.292-0.372,0.64-0.476,1.042s-0.155,0.847-0.155,1.334v4.169h-1.427V461.136z"/>
	<path fill="#FFFFFF" d="M625.549,461.136c0-0.39-0.012-0.755-0.036-1.097c-0.024-0.341-0.036-0.652-0.036-0.933h1.353
		c0,0.231,0.006,0.464,0.019,0.695c0.012,0.231,0.018,0.469,0.018,0.713h0.037c0.098-0.207,0.234-0.408,0.411-0.604
		s0.387-0.368,0.631-0.521c0.243-0.152,0.518-0.273,0.822-0.365s0.634-0.137,0.987-0.137c0.464,0,0.851,0.058,1.161,0.173
		c0.312,0.116,0.57,0.257,0.777,0.421c0.207,0.165,0.368,0.342,0.484,0.53c0.116,0.189,0.21,0.356,0.283,0.503
		c0.317-0.512,0.683-0.911,1.098-1.197c0.414-0.287,0.95-0.43,1.608-0.43c0.609,0,1.121,0.082,1.536,0.246
		c0.414,0.165,0.749,0.402,1.005,0.713c0.256,0.312,0.439,0.689,0.549,1.134c0.109,0.445,0.165,0.941,0.165,1.49v5.192h-1.427
		v-5.119c0-0.293-0.03-0.579-0.091-0.859c-0.062-0.28-0.171-0.53-0.329-0.75c-0.159-0.219-0.372-0.396-0.641-0.53
		c-0.268-0.134-0.609-0.2-1.023-0.2c-0.305,0-0.592,0.061-0.859,0.183c-0.269,0.122-0.503,0.292-0.704,0.512
		s-0.359,0.484-0.476,0.795c-0.115,0.312-0.173,0.655-0.173,1.033v4.937h-1.427v-4.845c0-0.951-0.128-1.624-0.384-2.021
		c-0.256-0.396-0.677-0.594-1.262-0.594c-0.463,0-0.862,0.079-1.197,0.237s-0.609,0.384-0.822,0.677
		c-0.214,0.292-0.372,0.64-0.476,1.042s-0.155,0.847-0.155,1.334v4.169h-1.427V461.136z"/>
	<path fill="#FFFFFF" d="M649.064,466.109c-0.512,0.658-1.072,1.118-1.682,1.38c-0.61,0.262-1.316,0.394-2.121,0.394
		c-0.671,0-1.273-0.119-1.81-0.356c-0.537-0.238-0.991-0.558-1.362-0.96c-0.372-0.402-0.658-0.878-0.859-1.427
		c-0.201-0.548-0.302-1.133-0.302-1.755c0-0.658,0.109-1.265,0.329-1.819c0.22-0.554,0.523-1.029,0.914-1.426
		c0.39-0.396,0.853-0.704,1.39-0.923c0.536-0.22,1.121-0.329,1.755-0.329c0.598,0,1.146,0.101,1.646,0.301
		c0.5,0.201,0.93,0.494,1.289,0.878s0.637,0.854,0.832,1.408c0.194,0.555,0.292,1.186,0.292,1.892v0.457h-6.91
		c0.023,0.366,0.112,0.717,0.265,1.052s0.351,0.628,0.594,0.878c0.244,0.25,0.53,0.447,0.859,0.594s0.688,0.22,1.079,0.22
		c0.622,0,1.146-0.11,1.572-0.329c0.427-0.22,0.811-0.543,1.152-0.97L649.064,466.109z M647.84,462.617
		c-0.024-0.731-0.263-1.316-0.713-1.755c-0.451-0.439-1.073-0.658-1.865-0.658s-1.433,0.219-1.92,0.658
		c-0.487,0.438-0.78,1.023-0.877,1.755H647.84z"/>
	<path fill="#FFFFFF" d="M651.884,461.136c0-0.39-0.012-0.755-0.036-1.097c-0.024-0.341-0.036-0.652-0.036-0.933h1.353
		c0,0.231,0.006,0.464,0.019,0.695c0.012,0.231,0.018,0.469,0.018,0.713h0.037c0.098-0.207,0.234-0.408,0.411-0.604
		s0.387-0.368,0.631-0.521c0.243-0.152,0.518-0.273,0.822-0.365s0.634-0.137,0.987-0.137c0.098,0,0.195,0.006,0.293,0.018
		c0.098,0.013,0.194,0.037,0.293,0.073l-0.092,1.444c-0.244-0.073-0.5-0.109-0.768-0.109c-0.878,0-1.515,0.283-1.911,0.85
		c-0.396,0.567-0.594,1.344-0.594,2.331v4.169h-1.427V461.136z"/>
</g>
</svg>
