<?xml version="1.0" encoding="utf-8"?>
<!-- Generator: Adobe Illustrator 15.1.0, SVG Export Plug-In . SVG Version: 6.00 Build 0)  -->
<!DOCTYPE svg PUBLIC "-//W3C//DTD SVG 1.1//EN" "http://www.w3.org/Graphics/SVG/1.1/DTD/svg11.dtd">
<svg version="1.1" id="Layer_1" xmlns="http://www.w3.org/2000/svg" xmlns:xlink="http://www.w3.org/1999/xlink" x="0px" y="0px"
	 width="100px" height="100px" viewBox="0 0 100 100" enable-background="new 0 0 100 100" xml:space="preserve">
<g>
	<path fill="#FFFFFF" d="M99.224,15.149v69.702c0,7.932-6.441,14.373-14.373,14.373H15.149c-7.931,0-14.373-6.441-14.373-14.373
		V15.149c0-7.931,6.441-14.373,14.373-14.373h69.702C92.782,0.776,99.224,7.218,99.224,15.149z M88.985,43.847H78.073
		c0.433,1.97,0.625,4.038,0.625,6.153c0,15.863-12.836,28.698-28.698,28.698c-15.863,0-28.697-12.835-28.697-28.698
		c0-2.115,0.192-4.183,0.625-6.153H11.016v43.071c0,1.153,0.913,2.067,2.067,2.067h73.835c1.153,0,2.067-0.914,2.067-2.067V43.847z
		 M31.541,50c0,10.19,8.268,18.459,18.459,18.459c10.191,0,18.459-8.269,18.459-18.459c0-10.191-8.268-18.459-18.459-18.459
		C39.809,31.541,31.541,39.809,31.541,50z M88.985,13.083c0-1.154-0.914-2.067-2.067-2.067H74.611c-1.153,0-2.066,0.913-2.066,2.067
		v12.306c0,1.154,0.913,2.067,2.066,2.067h12.307c1.153,0,2.067-0.913,2.067-2.067V13.083z"/>
</g>
</svg>
