<?xml version="1.0" encoding="utf-8"?>
<!-- Generator: Adobe Illustrator 15.1.0, SVG Export Plug-In . SVG Version: 6.00 Build 0)  -->
<!DOCTYPE svg PUBLIC "-//W3C//DTD SVG 1.1//EN" "http://www.w3.org/Graphics/SVG/1.1/DTD/svg11.dtd">
<svg version="1.1" id="Layer_1" xmlns="http://www.w3.org/2000/svg" xmlns:xlink="http://www.w3.org/1999/xlink" x="0px" y="0px"
	 width="100px" height="100px" viewBox="0 0 100 100" enable-background="new 0 0 100 100" xml:space="preserve">
<g>
	<path fill="#FFFFFF" d="M89.733,29.621c0,0.926,0,1.755,0,2.682c0,27.058-20.573,58.26-58.211,58.26
		c-11.554,0-22.426-2.535-31.445-8.337c1.608,0.244,3.217,0.342,4.875,0.342c9.556,0,18.478-4.145,25.4-9.702
		c-8.873-0.098-16.527-6.143-19.062-14.236c1.268,0.244,2.535,0.391,3.803,0.391c1.853,0,3.705-0.244,5.46-0.731
		c-9.361-1.853-16.43-10.141-16.43-20.086c0-0.097,0-0.097,0-0.244c2.779,1.511,5.899,2.438,9.263,2.535
		c-5.558-3.705-9.166-9.946-9.166-16.966c0-3.803,1.073-6.923,2.779-9.946c10.189,12.383,25.205,20.086,42.171,21.013
		c-0.341-1.463-0.439-3.121-0.439-4.729c0-11.311,9.117-20.428,20.428-20.428c5.898,0,11.213,2.535,15.064,6.436
		c4.583-0.926,9.02-2.633,12.92-4.973c-1.512,4.778-4.729,8.825-9.02,11.36c4.192-0.488,8.093-1.609,11.798-3.267
		C97.145,23.186,93.683,26.745,89.733,29.621z"/>
</g>
</svg>
